<?xml version="1.0" encoding="UTF-8"?>
<svg width="600" height="400" viewBox="0 0 600 400" fill="none" xmlns="http://www.w3.org/2000/svg">
    <!-- Background Elements -->
    <rect width="600" height="400" fill="#F7FAFC" />
    
    <!-- Task Board -->
    <rect x="100" y="50" width="400" height="300" rx="10" fill="white" stroke="#E2E8F0" stroke-width="2"/>
    
    <!-- Task Columns -->
    <rect x="120" y="70" width="110" height="260" rx="5" fill="#EBF8FF"/>
    <rect x="245" y="70" width="110" height="260" rx="5" fill="#E6FFFA"/>
    <rect x="370" y="70" width="110" height="260" rx="5" fill="#FEF5FF"/>
    
    <!-- Column Headers -->
    <text x="145" y="95" font-family="Arial" font-size="14" fill="#2D3748">To Do</text>
    <text x="270" y="95" font-family="Arial" font-size="14" fill="#2D3748">In Progress</text>
    <text x="395" y="95" font-family="Arial" font-size="14" fill="#2D3748">Done</text>
    
    <!-- Task Cards -->
    <rect x="130" y="110" width="90" height="60" rx="5" fill="white" stroke="#CBD5E0" stroke-width="1"/>
    <rect x="130" y="180" width="90" height="60" rx="5" fill="white" stroke="#CBD5E0" stroke-width="1"/>
    
    <rect x="255" y="110" width="90" height="60" rx="5" fill="white" stroke="#CBD5E0" stroke-width="1"/>
    
    <rect x="380" y="110" width="90" height="60" rx="5" fill="white" stroke="#CBD5E0" stroke-width="1"/>
    <rect x="380" y="180" width="90" height="60" rx="5" fill="white" stroke="#CBD5E0" stroke-width="1"/>
    <rect x="380" y="250" width="90" height="60" rx="5" fill="white" stroke="#CBD5E0" stroke-width="1"/>
    
    <!-- Task Card Details -->
    <circle cx="140" cy="125" r="3" fill="#4299E1"/>
    <line x1="150" y1="125" x2="210" y2="125" stroke="#718096" stroke-width="1"/>
    
    <circle cx="140" cy="195" r="3" fill="#48BB78"/>
    <line x1="150" y1="195" x2="210" y2="195" stroke="#718096" stroke-width="1"/>
    
    <circle cx="265" cy="125" r="3" fill="#ED8936"/>
    <line x1="275" y1="125" x2="335" y2="125" stroke="#718096" stroke-width="1"/>
    
    <circle cx="390" cy="125" r="3" fill="#9F7AEA"/>
    <line x1="400" y1="125" x2="460" y2="125" stroke="#718096" stroke-width="1"/>
    
    <circle cx="390" cy="195" r="3" fill="#F56565"/>
    <line x1="400" y1="195" x2="460" y2="195" stroke="#718096" stroke-width="1"/>
    
    <circle cx="390" cy="265" r="3" fill="#38B2AC"/>
    <line x1="400" y1="265" x2="460" y2="265" stroke="#718096" stroke-width="1"/>
</svg> 